<?xml version="1.0" standalone="no"?>
<!DOCTYPE svg PUBLIC "-//W3C//DTD SVG 20010904//EN"
 "http://www.w3.org/TR/2001/REC-SVG-20010904/DTD/svg10.dtd">
<svg version="1.0" xmlns="http://www.w3.org/2000/svg"
 width="500.000000pt" height="500.000000pt" viewBox="0 0 500.000000 500.000000"
 preserveAspectRatio="xMidYMid meet">

<g transform="translate(0.000000,500.000000) scale(0.100000,-0.100000)"
fill="#000000" stroke="none">
<path d="M2345 4989 c-332 -21 -639 -105 -945 -258 -485 -243 -888 -646 -1131
-1131 -180 -358 -260 -699 -260 -1100 0 -401 80 -742 260 -1100 243 -485 646
-888 1131 -1131 358 -180 699 -260 1100 -260 212 0 348 14 536 56 722 162
1358 664 1695 1335 180 358 260 699 260 1100 0 401 -80 742 -260 1100 -243
485 -646 888 -1131 1131 -395 198 -821 286 -1255 258z m485 -284 c393 -59 767
-220 1073 -462 92 -73 267 -248 340 -340 243 -308 402 -677 463 -1083 25 -158
25 -482 0 -640 -51 -339 -166 -644 -344 -916 -44 -67 -84 -124 -90 -128 -7 -4
-22 15 -38 46 -66 132 -188 300 -309 427 -206 216 -481 399 -747 497 -68 25
-97 44 -69 44 15 0 137 97 201 161 248 248 378 597 342 920 -29 261 -136 488
-321 682 -150 158 -351 279 -557 334 -90 24 -116 27 -274 27 -158 0 -184 -3
-274 -27 -549 -148 -937 -690 -878 -1228 29 -265 150 -516 342 -708 64 -64
186 -161 201 -161 28 0 -1 -19 -69 -44 -266 -98 -541 -281 -747 -497 -121
-127 -243 -295 -309 -427 -16 -31 -31 -50 -38 -46 -6 4 -46 61 -90 128 -178
272 -293 577 -344 916 -25 158 -25 482 0 640 61 406 220 775 463 1083 73 92
248 267 340 340 348 275 782 444 1238 481 96 8 391 -4 495 -19z m-135 -711
c320 -61 577 -304 667 -629 18 -67 22 -106 21 -245 0 -150 -2 -173 -26 -253
-47 -152 -113 -266 -213 -369 -147 -150 -317 -232 -542 -259 -218 -26 -453 32
-627 156 -160 114 -271 271 -332 472 -24 80 -26 103 -26 253 -1 139 3 178 21
245 127 463 564 723 1057 629z m35 -2045 c392 -44 795 -260 1049 -562 96 -115
173 -233 239 -366 l56 -114 -54 -50 c-337 -305 -738 -493 -1200 -563 -158 -25
-482 -25 -640 0 -462 70 -863 258 -1200 563 l-54 50 56 114 c169 344 419 597
753 764 312 156 617 206 995 164z"/>
</g>
</svg>
