<?xml version="1.0" standalone="no"?>
<!DOCTYPE svg PUBLIC "-//W3C//DTD SVG 20010904//EN"
 "http://www.w3.org/TR/2001/REC-SVG-20010904/DTD/svg10.dtd">
<svg version="1.0" xmlns="http://www.w3.org/2000/svg"
 width="540.000000pt" height="591.000000pt" viewBox="0 0 540.000000 591.000000"
 preserveAspectRatio="xMidYMid meet">

<g transform="translate(0.000000,591.000000) scale(0.100000,-0.100000)"
fill="#000000" stroke="none">
<path d="M1492 5170 c-51 -33 -95 -60 -98 -60 -3 0 -17 -8 -31 -17 -26 -17 41
-18 1502 -23 l1530 -5 5 -2075 5 -2075 75 0 75 0 3 2158 2 2157 -1488 0 -1488
0 -92 -60z"/>
<path d="M1284 4897 c-2 -7 -3 -91 -2 -187 l3 -175 156 -6 c178 -7 209 -18
255 -90 58 -93 53 -186 -15 -262 -59 -65 -78 -71 -248 -75 l-153 -4 0 -93 0
-93 148 -4 c140 -4 151 -5 195 -32 50 -28 86 -75 108 -138 19 -54 -1 -133 -47
-187 -59 -68 -80 -75 -249 -81 l-150 -5 0 -90 0 -90 145 -6 c156 -7 179 -12
229 -54 89 -75 102 -210 29 -299 -54 -65 -94 -79 -258 -85 l-145 -6 0 -90 0
-90 150 -5 c169 -6 190 -12 248 -80 47 -56 64 -118 48 -179 -37 -139 -132
-186 -356 -180 l-90 3 0 -94 0 -95 155 -5 155 -5 47 -34 c122 -88 123 -270 2
-353 -37 -26 -47 -28 -199 -35 l-160 -8 0 -95 0 -95 155 -5 c172 -6 199 -14
243 -72 32 -42 57 -103 57 -138 0 -43 -28 -112 -58 -143 -61 -64 -84 -71 -247
-77 l-150 -5 0 -180 0 -180 1473 -3 1472 -2 0 2160 0 2160 -1470 0 c-1189 0
-1472 -2 -1476 -13z"/>
<path d="M1008 4422 c-37 -35 -42 -45 -46 -95 -4 -50 -1 -61 22 -92 52 -68 63
-70 330 -67 257 3 273 6 322 59 33 35 34 132 3 171 -48 61 -50 62 -332 62
l-258 0 -41 -38z"/>
<path d="M1014 3802 c-42 -36 -54 -61 -54 -115 0 -54 31 -105 80 -129 30 -16
66 -18 268 -18 253 0 275 4 323 56 53 59 45 151 -19 203 l-37 31 -265 0 -265
-1 -31 -27z"/>
<path d="M1080 3203 c-74 -10 -120 -68 -120 -153 0 -45 4 -54 39 -89 51 -51
70 -54 355 -49 l228 3 39 43 c64 72 62 151 -5 210 -28 25 -45 30 -107 35 -84
7 -376 7 -429 0z"/>
<path d="M1040 2562 c-50 -25 -80 -74 -80 -134 0 -43 5 -54 41 -93 l42 -45
270 0 270 0 37 39 c55 58 62 132 17 193 -38 52 -75 58 -330 58 -198 -1 -237
-3 -267 -18z"/>
<path d="M1045 1937 c-57 -32 -85 -79 -85 -140 0 -45 4 -53 44 -93 l43 -44
258 0 c244 0 259 1 291 21 52 32 64 56 64 126 0 56 -3 65 -33 96 -19 20 -49
39 -72 45 -22 6 -137 11 -256 11 -203 0 -217 -2 -254 -22z"/>
<path d="M1110 1320 c-77 -6 -116 -27 -136 -75 -28 -69 -14 -134 41 -185 27
-25 27 -25 258 -28 286 -4 307 -2 352 45 32 33 35 41 35 95 0 67 -21 108 -68
132 -29 15 -358 26 -482 16z"/>
</g>
</svg>
